<svg width="1920" height="1080" viewBox="0 0 1920 1080" fill="none" xmlns="http://www.w3.org/2000/svg">
<rect width="1920" height="1080" fill="#EEEEEE"/>
<path d="M33.9844 53H31.875V36.0312H33.9844V53ZM39.4922 53H37.4766V40.2734H39.4219V42.2656H39.5859C39.9141 41.5781 40.3828 41.0469 40.9922 40.6719C41.6016 40.2969 42.375 40.1094 43.3125 40.1094C44.1875 40.1094 44.9453 40.2852 45.5859 40.6367C46.2266 40.9883 46.7227 41.5234 47.0742 42.2422C47.4258 42.9609 47.6016 43.8516 47.6016 44.9141V53H45.5859V45.0547C45.5859 44.3984 45.4727 43.8359 45.2461 43.3672C45.0195 42.8984 44.6914 42.5391 44.2617 42.2891C43.832 42.0391 43.3125 41.9141 42.7031 41.9141C42.0781 41.9141 41.5234 42.0469 41.0391 42.3125C40.5547 42.5781 40.1758 42.9727 39.9023 43.4961C39.6289 44.0195 39.4922 44.6406 39.4922 45.3594V53ZM55.6406 53.2578C54.5938 53.2578 53.6602 52.9883 52.8398 52.4492C52.0195 51.9102 51.3789 51.1406 50.918 50.1406C50.457 49.1406 50.2266 47.9844 50.2266 46.6719C50.2266 45.3438 50.457 44.1836 50.918 43.1914C51.3789 42.1992 52.0195 41.4375 52.8398 40.9062C53.6602 40.375 54.6016 40.1094 55.6641 40.1094C56.4141 40.1094 57.0352 40.2305 57.5273 40.4727C58.0195 40.7148 58.3828 40.9766 58.6172 41.2578C58.8516 41.5391 59.0938 41.8828 59.3438 42.2891H59.4844V36.0312H61.5234V53H59.5547V51.0547H59.3438C59.0781 51.4609 58.8281 51.8047 58.5938 52.0859C58.3594 52.3672 57.9961 52.6328 57.5039 52.8828C57.0117 53.1328 56.3906 53.2578 55.6406 53.2578ZM55.9219 51.4531C56.6875 51.4531 57.3438 51.25 57.8906 50.8438C58.4375 50.4375 58.8516 49.8711 59.1328 49.1445C59.4141 48.418 59.5547 47.5781 59.5547 46.625C59.5547 45.6719 59.418 44.8438 59.1445 44.1406C58.8711 43.4375 58.4609 42.8906 57.9141 42.5C57.3672 42.1094 56.7031 41.9141 55.9219 41.9141C55.1406 41.9141 54.4766 42.1172 53.9297 42.5234C53.3828 42.9297 52.9688 43.4883 52.6875 44.1992C52.4062 44.9102 52.2656 45.7188 52.2656 46.625C52.2656 47.5469 52.4062 48.3711 52.6875 49.0977C52.9688 49.8242 53.3828 50.3984 53.9297 50.8203C54.4766 51.2422 55.1406 51.4531 55.9219 51.4531ZM70.3594 53.2578C69.1562 53.2578 68.1055 52.9883 67.207 52.4492C66.3086 51.9102 65.6172 51.1484 65.1328 50.1641C64.6484 49.1797 64.4062 48.0391 64.4062 46.7422C64.4062 45.4453 64.6484 44.293 65.1328 43.2852C65.6172 42.2773 66.293 41.4961 67.1602 40.9414C68.0273 40.3867 69.0312 40.1094 70.1719 40.1094C71.1406 40.1094 72.0391 40.3203 72.8672 40.7422C73.6953 41.1641 74.3672 41.8516 74.8828 42.8047C75.3984 43.7578 75.6562 44.9766 75.6562 46.4609V47.3047H65.8125V45.5938H73.6172C73.6172 44.875 73.4766 44.2383 73.1953 43.6836C72.9141 43.1289 72.5117 42.6914 71.9883 42.3711C71.4648 42.0508 70.8594 41.8906 70.1719 41.8906C69.4219 41.8906 68.7656 42.0742 68.2031 42.4414C67.6406 42.8086 67.2031 43.3008 66.8906 43.918C66.5781 44.5352 66.4219 45.1953 66.4219 45.8984V47.0469C66.4219 47.9844 66.5859 48.7852 66.9141 49.4492C67.2422 50.1133 67.7031 50.6172 68.2969 50.9609C68.8906 51.3047 69.5781 51.4766 70.3594 51.4766C70.8438 51.4766 71.2812 51.4102 71.6719 51.2773C72.0625 51.1445 72.3945 50.9727 72.668 50.7617C72.9414 50.5508 73.1562 50.3047 73.3125 50.0234H75.4688C75.2656 50.6641 74.9297 51.2266 74.4609 51.7109C73.9922 52.1953 73.4062 52.5742 72.7031 52.8477C72 53.1211 71.2188 53.2578 70.3594 53.2578ZM82.4766 45.4531L85.5 40.2734H87.8203L83.7188 46.625L87.8203 53H85.5234L82.4766 48.0781L79.4766 53H77.1562L81.1641 46.625L77.1562 40.2734H79.4766L82.4766 45.4531Z" fill="#787878"/>
<path d="M1737.57 51.4531L1743.36 45.3594C1744.12 44.5469 1744.71 43.8945 1745.12 43.4023C1745.52 42.9102 1745.83 42.4297 1746.03 41.9609C1746.23 41.4922 1746.34 41.0078 1746.34 40.5078C1746.34 39.9453 1746.19 39.4453 1745.89 39.0078C1745.59 38.5703 1745.19 38.2305 1744.68 37.9883C1744.18 37.7461 1743.6 37.625 1742.96 37.625C1742.3 37.625 1741.73 37.7578 1741.23 38.0234C1740.73 38.2891 1740.34 38.6641 1740.07 39.1484C1739.79 39.6328 1739.66 40.1875 1739.66 40.8125H1737.66C1737.66 39.8281 1737.89 38.957 1738.36 38.1992C1738.82 37.4414 1739.46 36.8516 1740.28 36.4297C1741.1 36.0078 1742.02 35.7969 1743.03 35.7969C1744.05 35.7969 1744.95 36.0039 1745.75 36.418C1746.55 36.832 1747.17 37.3984 1747.62 38.1172C1748.08 38.8359 1748.3 39.6328 1748.3 40.5078C1748.3 41.1484 1748.19 41.7656 1747.95 42.3594C1747.72 42.9531 1747.33 43.6055 1746.78 44.3164C1746.23 45.0273 1745.45 45.9141 1744.41 46.9766L1740.52 50.9844V51.125H1748.61V53H1737.59L1737.57 51.4531ZM1757.23 53.2344C1755.98 53.2344 1754.92 52.8945 1754.04 52.2148C1753.15 51.5352 1752.48 50.543 1752.01 49.2383C1751.54 47.9336 1751.3 46.3594 1751.3 44.5156C1751.3 42.6875 1751.54 41.1211 1752.01 39.8164C1752.48 38.5117 1753.16 37.5156 1754.05 36.8281C1754.94 36.1406 1756 35.7969 1757.23 35.7969C1758.47 35.7969 1759.53 36.1406 1760.42 36.8281C1761.31 37.5156 1761.99 38.5117 1762.46 39.8164C1762.93 41.1211 1763.16 42.6875 1763.16 44.5156C1763.16 46.3594 1762.93 47.9336 1762.47 49.2383C1762.01 50.543 1761.34 51.5352 1760.45 52.2148C1759.55 52.8945 1758.48 53.2344 1757.23 53.2344ZM1757.23 51.3594C1758.05 51.3594 1758.74 51.0938 1759.32 50.5625C1759.9 50.0312 1760.34 49.2539 1760.64 48.2305C1760.95 47.207 1761.1 45.9688 1761.1 44.5156C1761.1 43.0625 1760.95 41.8203 1760.64 40.7891C1760.34 39.7578 1759.9 38.9727 1759.32 38.4336C1758.74 37.8945 1758.05 37.625 1757.23 37.625C1756.42 37.625 1755.73 37.8945 1755.15 38.4336C1754.57 38.9727 1754.12 39.7578 1753.81 40.7891C1753.5 41.8203 1753.34 43.0625 1753.34 44.5156C1753.34 45.9688 1753.5 47.207 1753.8 48.2305C1754.11 49.2539 1754.55 50.0312 1755.14 50.5625C1755.72 51.0938 1756.42 51.3594 1757.23 51.3594ZM1765.95 51.4531L1771.74 45.3594C1772.51 44.5469 1773.09 43.8945 1773.5 43.4023C1773.91 42.9102 1774.21 42.4297 1774.41 41.9609C1774.62 41.4922 1774.72 41.0078 1774.72 40.5078C1774.72 39.9453 1774.57 39.4453 1774.27 39.0078C1773.98 38.5703 1773.57 38.2305 1773.07 37.9883C1772.56 37.7461 1771.98 37.625 1771.34 37.625C1770.69 37.625 1770.11 37.7578 1769.61 38.0234C1769.11 38.2891 1768.72 38.6641 1768.45 39.1484C1768.18 39.6328 1768.04 40.1875 1768.04 40.8125H1766.05C1766.05 39.8281 1766.28 38.957 1766.74 38.1992C1767.2 37.4414 1767.84 36.8516 1768.66 36.4297C1769.48 36.0078 1770.4 35.7969 1771.41 35.7969C1772.43 35.7969 1773.34 36.0039 1774.13 36.418C1774.93 36.832 1775.55 37.3984 1776.01 38.1172C1776.46 38.8359 1776.69 39.6328 1776.69 40.5078C1776.69 41.1484 1776.57 41.7656 1776.34 42.3594C1776.1 42.9531 1775.71 43.6055 1775.16 44.3164C1774.62 45.0273 1773.83 45.9141 1772.8 46.9766L1768.91 50.9844V51.125H1776.99V53H1765.98L1765.95 51.4531ZM1779.27 47.7969L1786.91 36.0312H1788.17V38.7031H1787.28L1781.54 47.5391V47.6797H1791.88V49.5312H1779.27V47.7969ZM1787.49 49.0156V48.1953V36.0312H1789.51V53H1787.49V49.0156ZM1800.97 36.0312H1806.73C1808.02 36.0312 1809.09 36.2656 1809.96 36.7344C1810.82 37.2031 1811.47 37.8398 1811.89 38.6445C1812.31 39.4492 1812.52 40.375 1812.52 41.4219C1812.52 42.4531 1812.31 43.375 1811.89 44.1875C1811.47 45 1810.83 45.6445 1809.97 46.1211C1809.11 46.5977 1808.04 46.8359 1806.76 46.8359H1802.63V44.9609H1806.66C1807.54 44.9609 1808.26 44.8086 1808.82 44.5039C1809.38 44.1992 1809.79 43.7812 1810.05 43.25C1810.31 42.7188 1810.44 42.1094 1810.44 41.4219C1810.44 40.7188 1810.31 40.1055 1810.05 39.582C1809.79 39.0586 1809.38 38.6484 1808.81 38.3516C1808.24 38.0547 1807.52 37.9062 1806.64 37.9062H1803.08V53H1800.97V36.0312ZM1820.28 53.2578C1819.14 53.2578 1818.13 52.9844 1817.25 52.4375C1816.36 51.8906 1815.68 51.1211 1815.2 50.1289C1814.71 49.1367 1814.47 47.9922 1814.47 46.6953C1814.47 45.3828 1814.71 44.2305 1815.2 43.2383C1815.68 42.2461 1816.36 41.4766 1817.25 40.9297C1818.13 40.3828 1819.14 40.1094 1820.28 40.1094C1821.42 40.1094 1822.43 40.3828 1823.3 40.9297C1824.18 41.4766 1824.86 42.2461 1825.33 43.2383C1825.81 44.2305 1826.05 45.3828 1826.05 46.6953C1826.05 47.9922 1825.81 49.1367 1825.33 50.1289C1824.86 51.1211 1824.18 51.8906 1823.3 52.4375C1822.43 52.9844 1821.42 53.2578 1820.28 53.2578ZM1820.28 51.4766C1821.11 51.4766 1821.8 51.2578 1822.37 50.8203C1822.93 50.3828 1823.35 49.8047 1823.62 49.0859C1823.89 48.3672 1824.03 47.5703 1824.03 46.6953C1824.03 45.8203 1823.89 45.0195 1823.62 44.293C1823.35 43.5664 1822.93 42.9844 1822.37 42.5469C1821.8 42.1094 1821.11 41.8906 1820.28 41.8906C1819.45 41.8906 1818.75 42.1094 1818.18 42.5469C1817.61 42.9844 1817.19 43.5664 1816.91 44.293C1816.62 45.0195 1816.48 45.8203 1816.48 46.6953C1816.48 47.5703 1816.62 48.3672 1816.91 49.0859C1817.19 49.8047 1817.61 50.3828 1818.18 50.8203C1818.75 51.2578 1819.45 51.4766 1820.28 51.4766ZM1828.7 40.2734H1830.64V42.2188H1830.78C1831.02 41.5625 1831.43 41.0391 1832.04 40.6484C1832.64 40.2578 1833.31 40.0625 1834.06 40.0625C1834.45 40.0625 1834.8 40.0781 1835.12 40.1094V42.1484C1835.04 42.1172 1834.88 42.0859 1834.62 42.0547C1834.38 42.0234 1834.13 42.0078 1833.9 42.0078C1833.3 42.0078 1832.77 42.1367 1832.28 42.3945C1831.8 42.6523 1831.41 43.0078 1831.13 43.4609C1830.85 43.9141 1830.71 44.4219 1830.71 44.9844V53H1828.7V40.2734ZM1843.44 41.9609H1836.8V40.2734H1843.44V41.9609ZM1840.77 37.2266V49.3438C1840.77 49.8594 1840.84 50.2539 1840.99 50.5273C1841.14 50.8008 1841.33 50.9883 1841.57 51.0898C1841.82 51.1914 1842.1 51.2422 1842.43 51.2422C1842.82 51.2422 1843.22 51.2266 1843.62 51.1953V53.0703C1843.22 53.1328 1842.75 53.1641 1842.22 53.1641C1841.62 53.1641 1841.06 53.0391 1840.53 52.7891C1840 52.5391 1839.57 52.1641 1839.23 51.6641C1838.89 51.1641 1838.73 50.5625 1838.73 49.8594V37.2266H1840.77ZM1851.73 41.9609H1844.84V40.2734H1851.73V41.9609ZM1846.88 38.5391C1846.88 37.8516 1847.03 37.2617 1847.33 36.7695C1847.62 36.2773 1848.05 35.8984 1848.59 35.6328C1849.14 35.3672 1849.78 35.2344 1850.52 35.2344C1850.75 35.2344 1851 35.2461 1851.27 35.2695C1851.53 35.293 1851.78 35.3281 1852.02 35.375V37.1797C1851.64 37.1172 1851.29 37.0859 1850.96 37.0859C1850.26 37.0859 1849.74 37.2383 1849.41 37.543C1849.09 37.8477 1848.92 38.3281 1848.92 38.9844V53H1846.88V38.5391ZM1858.79 53.2578C1857.65 53.2578 1856.64 52.9844 1855.75 52.4375C1854.87 51.8906 1854.19 51.1211 1853.7 50.1289C1853.22 49.1367 1852.98 47.9922 1852.98 46.6953C1852.98 45.3828 1853.22 44.2305 1853.7 43.2383C1854.19 42.2461 1854.87 41.4766 1855.75 40.9297C1856.64 40.3828 1857.65 40.1094 1858.79 40.1094C1859.93 40.1094 1860.94 40.3828 1861.81 40.9297C1862.69 41.4766 1863.36 42.2461 1863.84 43.2383C1864.32 44.2305 1864.55 45.3828 1864.55 46.6953C1864.55 47.9922 1864.32 49.1367 1863.84 50.1289C1863.36 51.1211 1862.69 51.8906 1861.81 52.4375C1860.94 52.9844 1859.93 53.2578 1858.79 53.2578ZM1858.79 51.4766C1859.62 51.4766 1860.31 51.2578 1860.88 50.8203C1861.44 50.3828 1861.86 49.8047 1862.13 49.0859C1862.4 48.3672 1862.54 47.5703 1862.54 46.6953C1862.54 45.8203 1862.4 45.0195 1862.13 44.293C1861.86 43.5664 1861.44 42.9844 1860.88 42.5469C1860.31 42.1094 1859.62 41.8906 1858.79 41.8906C1857.96 41.8906 1857.26 42.1094 1856.69 42.5469C1856.12 42.9844 1855.7 43.5664 1855.41 44.293C1855.13 45.0195 1854.99 45.8203 1854.99 46.6953C1854.99 47.5703 1855.13 48.3672 1855.41 49.0859C1855.7 49.8047 1856.12 50.3828 1856.69 50.8203C1857.26 51.2578 1857.96 51.4766 1858.79 51.4766ZM1869.22 53H1867.2V36.0312H1869.22V53ZM1872.43 40.2734H1874.45V53H1872.43V40.2734ZM1873.44 38.1641C1873.19 38.1641 1872.95 38.1055 1872.73 37.9883C1872.52 37.8711 1872.34 37.707 1872.22 37.4961C1872.09 37.2852 1872.03 37.0625 1872.03 36.8281C1872.03 36.5781 1872.09 36.3516 1872.22 36.1484C1872.34 35.9453 1872.52 35.7852 1872.73 35.668C1872.95 35.5508 1873.19 35.4922 1873.44 35.4922C1873.7 35.4922 1873.95 35.5508 1874.16 35.668C1874.38 35.7852 1874.55 35.9453 1874.68 36.1484C1874.8 36.3516 1874.87 36.5781 1874.87 36.8281C1874.87 37.0625 1874.8 37.2852 1874.68 37.4961C1874.55 37.707 1874.38 37.8711 1874.16 37.9883C1873.95 38.1055 1873.7 38.1641 1873.44 38.1641ZM1882.86 53.2578C1881.72 53.2578 1880.71 52.9844 1879.82 52.4375C1878.94 51.8906 1878.26 51.1211 1877.77 50.1289C1877.29 49.1367 1877.05 47.9922 1877.05 46.6953C1877.05 45.3828 1877.29 44.2305 1877.77 43.2383C1878.26 42.2461 1878.94 41.4766 1879.82 40.9297C1880.71 40.3828 1881.72 40.1094 1882.86 40.1094C1884 40.1094 1885.01 40.3828 1885.88 40.9297C1886.76 41.4766 1887.43 42.2461 1887.91 43.2383C1888.39 44.2305 1888.62 45.3828 1888.62 46.6953C1888.62 47.9922 1888.39 49.1367 1887.91 50.1289C1887.43 51.1211 1886.76 51.8906 1885.88 52.4375C1885.01 52.9844 1884 53.2578 1882.86 53.2578ZM1882.86 51.4766C1883.69 51.4766 1884.38 51.2578 1884.95 50.8203C1885.51 50.3828 1885.93 49.8047 1886.2 49.0859C1886.47 48.3672 1886.61 47.5703 1886.61 46.6953C1886.61 45.8203 1886.47 45.0195 1886.2 44.293C1885.93 43.5664 1885.51 42.9844 1884.95 42.5469C1884.38 42.1094 1883.69 41.8906 1882.86 41.8906C1882.03 41.8906 1881.33 42.1094 1880.76 42.5469C1880.19 42.9844 1879.77 43.5664 1879.48 44.293C1879.2 45.0195 1879.06 45.8203 1879.06 46.6953C1879.06 47.5703 1879.2 48.3672 1879.48 49.0859C1879.77 49.8047 1880.19 50.3828 1880.76 50.8203C1881.33 51.2578 1882.03 51.4766 1882.86 51.4766Z" fill="#787878"/>
<path d="M1131.03 273H1128.52V237.648H1131.03V273ZM1141.77 273H1139.33V246.486H1141.7V250.661H1141.94C1142.61 249.245 1143.62 248.138 1144.97 247.341C1146.34 246.543 1147.95 246.145 1149.81 246.145C1151.6 246.145 1153.17 246.519 1154.52 247.268C1155.87 248.016 1156.92 249.107 1157.67 250.539C1158.43 251.955 1158.81 253.64 1158.81 255.593V273H1156.37V255.739C1156.37 254.258 1156.08 252.964 1155.49 251.857C1154.91 250.751 1154.08 249.896 1153 249.294C1151.95 248.692 1150.7 248.391 1149.27 248.391C1147.84 248.391 1146.55 248.708 1145.41 249.343C1144.27 249.961 1143.38 250.848 1142.73 252.004C1142.09 253.16 1141.77 254.494 1141.77 256.008V273ZM1176.17 248.659H1164.21V246.486H1176.17V248.659ZM1170.61 240.139V266.506C1170.61 267.548 1170.8 268.402 1171.19 269.069C1171.58 269.737 1172.1 270.233 1172.75 270.559C1173.41 270.884 1174.12 271.047 1174.9 271.047C1175.54 271.047 1176.18 271.031 1176.83 270.998V273.317C1176.33 273.382 1175.63 273.415 1174.73 273.415C1173.58 273.415 1172.49 273.163 1171.49 272.658C1170.49 272.154 1169.69 271.413 1169.07 270.437C1168.45 269.444 1168.14 268.288 1168.14 266.97V240.139H1170.61ZM1182.74 246.486H1185.11V250.612H1185.33C1185.91 249.229 1186.88 248.13 1188.23 247.316C1189.58 246.503 1191.11 246.096 1192.8 246.096C1193.25 246.096 1193.68 246.112 1194.07 246.145V248.61C1193.94 248.578 1193.73 248.553 1193.46 248.537C1193.2 248.505 1192.93 248.488 1192.65 248.488C1191.25 248.488 1189.98 248.798 1188.84 249.416C1187.7 250.035 1186.81 250.889 1186.16 251.979C1185.51 253.07 1185.18 254.299 1185.18 255.666V273H1182.74V246.486ZM1207.79 273.537C1205.59 273.537 1203.62 272.951 1201.88 271.779C1200.14 270.591 1198.77 268.964 1197.78 266.896C1196.8 264.813 1196.31 262.461 1196.31 259.841C1196.31 257.204 1196.8 254.844 1197.78 252.761C1198.77 250.661 1200.14 249.025 1201.88 247.854C1203.62 246.682 1205.59 246.096 1207.79 246.096C1209.99 246.096 1211.96 246.682 1213.7 247.854C1215.44 249.025 1216.8 250.661 1217.77 252.761C1218.75 254.844 1219.24 257.204 1219.24 259.841C1219.24 262.461 1218.75 264.813 1217.77 266.896C1216.8 268.964 1215.44 270.591 1213.7 271.779C1211.96 272.951 1209.99 273.537 1207.79 273.537ZM1207.79 271.315C1209.6 271.315 1211.17 270.803 1212.53 269.777C1213.88 268.752 1214.92 267.368 1215.65 265.627C1216.4 263.885 1216.77 261.957 1216.77 259.841C1216.77 257.709 1216.4 255.772 1215.65 254.03C1214.92 252.289 1213.88 250.905 1212.53 249.88C1211.17 248.854 1209.6 248.342 1207.79 248.342C1206.01 248.342 1204.44 248.854 1203.08 249.88C1201.71 250.905 1200.65 252.289 1199.9 254.03C1199.15 255.772 1198.78 257.709 1198.78 259.841C1198.78 261.957 1199.15 263.885 1199.88 265.627C1200.63 267.368 1201.69 268.752 1203.05 269.777C1204.44 270.803 1206.01 271.315 1207.79 271.315ZM1234.64 273.537C1232.54 273.537 1230.68 272.959 1229.05 271.804C1227.44 270.632 1226.19 269.004 1225.29 266.921C1224.4 264.838 1223.95 262.469 1223.95 259.816C1223.95 257.147 1224.4 254.771 1225.29 252.688C1226.19 250.588 1227.45 248.968 1229.08 247.829C1230.71 246.674 1232.57 246.096 1234.67 246.096C1236.15 246.096 1237.44 246.372 1238.55 246.926C1239.67 247.463 1240.59 248.163 1241.29 249.025C1242 249.888 1242.6 250.922 1243.09 252.126H1243.26V237.648H1245.75V273H1243.34V267.482H1243.09C1242.57 268.687 1241.96 269.72 1241.26 270.583C1240.56 271.429 1239.65 272.137 1238.53 272.707C1237.42 273.26 1236.13 273.537 1234.64 273.537ZM1234.91 271.291C1236.64 271.291 1238.14 270.795 1239.41 269.802C1240.69 268.809 1241.67 267.442 1242.33 265.7C1243 263.959 1243.34 261.981 1243.34 259.768C1243.34 257.554 1242.99 255.585 1242.31 253.859C1241.64 252.134 1240.67 250.791 1239.41 249.831C1238.15 248.854 1236.65 248.366 1234.91 248.366C1233.17 248.366 1231.66 248.863 1230.37 249.855C1229.1 250.832 1228.13 252.183 1227.44 253.908C1226.78 255.633 1226.44 257.587 1226.44 259.768C1226.44 261.949 1226.78 263.91 1227.44 265.651C1228.13 267.393 1229.1 268.768 1230.37 269.777C1231.66 270.786 1233.17 271.291 1234.91 271.291ZM1271.05 246.486H1273.46V273H1271.05V268.679H1270.83C1270.19 270.078 1269.18 271.21 1267.8 272.072C1266.42 272.919 1264.79 273.342 1262.92 273.342C1261.19 273.342 1259.66 272.967 1258.33 272.219C1256.99 271.454 1255.95 270.363 1255.2 268.947C1254.45 267.515 1254.08 265.83 1254.08 263.894V246.486H1256.52V263.747C1256.52 265.147 1256.81 266.392 1257.4 267.482C1258 268.573 1258.83 269.427 1259.89 270.046C1260.96 270.648 1262.18 270.949 1263.53 270.949C1264.88 270.949 1266.12 270.64 1267.26 270.021C1268.4 269.387 1269.31 268.5 1270 267.36C1270.7 266.221 1271.05 264.886 1271.05 263.356V246.486ZM1291.19 273.537C1288.93 273.537 1286.92 272.943 1285.16 271.755C1283.4 270.567 1282.03 268.939 1281.06 266.872C1280.1 264.789 1279.62 262.445 1279.62 259.841C1279.62 257.22 1280.1 254.868 1281.08 252.785C1282.07 250.686 1283.44 249.05 1285.18 247.878C1286.92 246.69 1288.91 246.096 1291.14 246.096C1292.85 246.096 1294.41 246.438 1295.83 247.121C1297.24 247.805 1298.41 248.773 1299.32 250.026C1300.25 251.263 1300.83 252.696 1301.08 254.323H1298.58C1298.37 253.184 1297.93 252.159 1297.24 251.247C1296.56 250.336 1295.7 249.628 1294.65 249.123C1293.63 248.602 1292.47 248.342 1291.19 248.342C1289.43 248.342 1287.87 248.83 1286.5 249.807C1285.13 250.767 1284.05 252.118 1283.25 253.859C1282.47 255.585 1282.08 257.554 1282.08 259.768C1282.08 261.949 1282.46 263.918 1283.23 265.676C1284.01 267.434 1285.08 268.809 1286.45 269.802C1287.82 270.795 1289.4 271.291 1291.19 271.291C1292.42 271.291 1293.57 271.047 1294.63 270.559C1295.69 270.054 1296.56 269.346 1297.24 268.435C1297.94 267.507 1298.4 266.441 1298.61 265.236H1301.1C1300.86 266.848 1300.29 268.28 1299.39 269.533C1298.5 270.786 1297.33 271.771 1295.9 272.487C1294.48 273.187 1292.91 273.537 1291.19 273.537ZM1317.63 273.537C1315.25 273.537 1313.16 272.959 1311.35 271.804C1309.55 270.632 1308.15 269.012 1307.15 266.945C1306.18 264.862 1305.69 262.51 1305.69 259.89C1305.69 257.253 1306.18 254.885 1307.15 252.785C1308.15 250.686 1309.51 249.05 1311.23 247.878C1312.97 246.69 1314.93 246.096 1317.12 246.096C1319.13 246.096 1320.99 246.608 1322.68 247.634C1324.37 248.659 1325.72 250.148 1326.71 252.102C1327.72 254.038 1328.22 256.325 1328.22 258.962V260.329H1307.3V258.181H1325.76C1325.76 256.325 1325.38 254.657 1324.63 253.176C1323.89 251.695 1322.85 250.523 1321.53 249.66C1320.22 248.781 1318.74 248.342 1317.12 248.342C1315.44 248.342 1313.92 248.814 1312.55 249.758C1311.18 250.686 1310.11 251.963 1309.33 253.591C1308.55 255.218 1308.16 257.001 1308.16 258.938V260.085C1308.16 262.25 1308.54 264.187 1309.3 265.896C1310.07 267.604 1311.17 268.939 1312.6 269.899C1314.03 270.843 1315.71 271.315 1317.63 271.315C1318.91 271.315 1320.05 271.104 1321.05 270.681C1322.04 270.257 1322.85 269.737 1323.49 269.118C1324.14 268.5 1324.63 267.865 1324.95 267.214H1327.61C1327.22 268.321 1326.57 269.362 1325.66 270.339C1324.75 271.299 1323.6 272.072 1322.22 272.658C1320.85 273.244 1319.32 273.537 1317.63 273.537Z" fill="black"/>
<path d="M955.43 273.488C952.712 273.488 950.384 272.78 948.447 271.364C946.51 269.948 945.029 267.881 944.004 265.163C942.979 262.445 942.466 259.165 942.466 255.324C942.466 251.516 942.979 248.252 944.004 245.534C945.029 242.816 946.519 240.741 948.472 239.309C950.425 237.876 952.744 237.16 955.43 237.16C958.115 237.16 960.435 237.876 962.388 239.309C964.341 240.741 965.83 242.816 966.855 245.534C967.881 248.252 968.394 251.516 968.394 255.324C968.394 259.165 967.881 262.445 966.855 265.163C965.846 267.881 964.365 269.948 962.412 271.364C960.475 272.78 958.148 273.488 955.43 273.488ZM955.43 268.874C957.008 268.874 958.368 268.353 959.507 267.312C960.662 266.27 961.541 264.74 962.144 262.722C962.746 260.687 963.039 258.221 963.022 255.324C963.022 252.427 962.721 249.961 962.119 247.927C961.517 245.892 960.646 244.346 959.507 243.288C958.368 242.23 957.008 241.701 955.43 241.701C953.851 241.701 952.492 242.23 951.353 243.288C950.213 244.346 949.334 245.892 948.716 247.927C948.097 249.961 947.788 252.427 947.788 255.324C947.788 258.221 948.089 260.687 948.691 262.722C949.294 264.74 950.173 266.27 951.328 267.312C952.484 268.353 953.851 268.874 955.43 268.874ZM987.412 273H981.992V243.044H981.797L973.374 248.562V243.41L982.139 237.648H987.412V273Z" fill="black"/>
<path d="M1153.13 398.732C1152.82 397.089 1152.15 395.575 1151.12 394.191C1150.1 392.808 1148.79 391.693 1147.19 390.847C1145.6 390 1143.82 389.577 1141.87 389.577C1139.53 389.577 1137.4 390.196 1135.5 391.433C1133.59 392.653 1132.07 394.452 1130.93 396.828C1129.81 399.204 1129.25 402.036 1129.25 405.324C1129.25 408.628 1129.81 411.468 1130.93 413.845C1132.06 416.221 1133.57 418.02 1135.47 419.24C1137.4 420.461 1139.53 421.071 1141.87 421.071C1143.82 421.071 1145.59 420.648 1147.17 419.802C1148.76 418.955 1150.07 417.84 1151.1 416.457C1152.14 415.074 1152.82 413.568 1153.13 411.94H1155.71C1155.34 413.975 1154.55 415.879 1153.35 417.653C1152.14 419.411 1150.55 420.827 1148.58 421.901C1146.62 422.959 1144.38 423.488 1141.87 423.488C1138.93 423.488 1136.3 422.74 1134.01 421.242C1131.73 419.729 1129.96 417.604 1128.69 414.87C1127.42 412.119 1126.78 408.938 1126.78 405.324C1126.78 401.695 1127.42 398.513 1128.69 395.778C1129.96 393.028 1131.73 390.904 1134.01 389.406C1136.3 387.909 1138.93 387.16 1141.87 387.16C1144.36 387.16 1146.59 387.689 1148.56 388.747C1150.55 389.805 1152.14 391.213 1153.35 392.971C1154.55 394.729 1155.34 396.649 1155.71 398.732H1153.13ZM1178.27 409.353C1178.04 409.369 1176.49 409.483 1173.61 409.694L1170.83 409.914C1168.17 410.109 1166.24 410.712 1165.04 411.721C1163.84 412.73 1163.23 414.073 1163.23 415.749C1163.23 416.888 1163.51 417.881 1164.06 418.728C1164.62 419.558 1165.37 420.201 1166.33 420.656C1167.29 421.112 1168.38 421.34 1169.58 421.34C1171.21 421.34 1172.65 420.949 1173.9 420.168C1175.16 419.387 1176.13 418.321 1176.83 416.97C1177.55 415.603 1177.91 414.089 1177.91 412.429V404.47C1177.91 403.2 1177.63 402.102 1177.08 401.174C1176.54 400.246 1175.75 399.538 1174.71 399.05C1173.68 398.562 1172.46 398.317 1171.05 398.317C1169.22 398.317 1167.68 398.708 1166.43 399.489C1165.18 400.271 1164.38 401.345 1164.04 402.712H1161.48C1161.69 401.377 1162.23 400.214 1163.11 399.221C1163.99 398.212 1165.12 397.438 1166.5 396.901C1167.9 396.364 1169.44 396.096 1171.12 396.096C1172.78 396.096 1174.29 396.389 1175.66 396.975C1177.04 397.561 1178.17 398.496 1179.03 399.782C1179.91 401.052 1180.35 402.671 1180.35 404.641V423H1177.91V418.386H1177.74C1177.28 419.346 1176.65 420.217 1175.86 420.998C1175.07 421.779 1174.12 422.406 1173 422.878C1171.89 423.35 1170.65 423.586 1169.26 423.586C1167.7 423.586 1166.27 423.277 1164.97 422.658C1163.68 422.023 1162.66 421.112 1161.89 419.924C1161.14 418.719 1160.77 417.303 1160.77 415.676C1160.77 413.267 1161.57 411.411 1163.18 410.109C1164.8 408.807 1167.19 408.042 1170.36 407.814C1171.49 407.701 1173.15 407.57 1175.37 407.424L1178.25 407.277L1178.27 409.353ZM1188.01 396.486H1190.38V400.612H1190.6C1191.19 399.229 1192.16 398.13 1193.51 397.316C1194.86 396.503 1196.38 396.096 1198.07 396.096C1198.53 396.096 1198.95 396.112 1199.34 396.145V398.61C1199.21 398.578 1199.01 398.553 1198.73 398.537C1198.47 398.505 1198.2 398.488 1197.93 398.488C1196.53 398.488 1195.26 398.798 1194.12 399.416C1192.98 400.035 1192.08 400.889 1191.43 401.979C1190.78 403.07 1190.46 404.299 1190.46 405.666V423H1188.01V396.486ZM1213.53 423.537C1211.15 423.537 1209.06 422.959 1207.25 421.804C1205.45 420.632 1204.05 419.012 1203.05 416.945C1202.08 414.862 1201.59 412.51 1201.59 409.89C1201.59 407.253 1202.08 404.885 1203.05 402.785C1204.05 400.686 1205.4 399.05 1207.13 397.878C1208.87 396.69 1210.83 396.096 1213.01 396.096C1215.03 396.096 1216.89 396.608 1218.58 397.634C1220.27 398.659 1221.62 400.148 1222.61 402.102C1223.62 404.038 1224.12 406.325 1224.12 408.962V410.329H1203.2V408.181H1221.66C1221.66 406.325 1221.28 404.657 1220.53 403.176C1219.78 401.695 1218.75 400.523 1217.43 399.66C1216.11 398.781 1214.64 398.342 1213.01 398.342C1211.34 398.342 1209.82 398.814 1208.45 399.758C1207.08 400.686 1206.01 401.963 1205.23 403.591C1204.44 405.218 1204.05 407.001 1204.05 408.938V410.085C1204.05 412.25 1204.44 414.187 1205.2 415.896C1205.97 417.604 1207.06 418.939 1208.5 419.899C1209.93 420.843 1211.61 421.315 1213.53 421.315C1214.81 421.315 1215.95 421.104 1216.94 420.681C1217.94 420.257 1218.75 419.737 1219.39 419.118C1220.04 418.5 1220.53 417.865 1220.85 417.214H1223.51C1223.12 418.321 1222.47 419.362 1221.56 420.339C1220.65 421.299 1219.5 422.072 1218.12 422.658C1216.75 423.244 1215.22 423.537 1213.53 423.537ZM1240.77 423.537C1238.4 423.537 1236.3 422.959 1234.5 421.804C1232.69 420.632 1231.29 419.012 1230.3 416.945C1229.32 414.862 1228.83 412.51 1228.83 409.89C1228.83 407.253 1229.32 404.885 1230.3 402.785C1231.29 400.686 1232.65 399.05 1234.38 397.878C1236.12 396.69 1238.08 396.096 1240.26 396.096C1242.28 396.096 1244.13 396.608 1245.83 397.634C1247.52 398.659 1248.86 400.148 1249.85 402.102C1250.86 404.038 1251.37 406.325 1251.37 408.962V410.329H1230.45V408.181H1248.9C1248.9 406.325 1248.53 404.657 1247.78 403.176C1247.03 401.695 1246 400.523 1244.68 399.66C1243.36 398.781 1241.89 398.342 1240.26 398.342C1238.58 398.342 1237.06 398.814 1235.69 399.758C1234.33 400.686 1233.25 401.963 1232.47 403.591C1231.69 405.218 1231.3 407.001 1231.3 408.938V410.085C1231.3 412.25 1231.68 414.187 1232.45 415.896C1233.21 417.604 1234.31 418.939 1235.74 419.899C1237.18 420.843 1238.85 421.315 1240.77 421.315C1242.06 421.315 1243.2 421.104 1244.19 420.681C1245.18 420.257 1246 419.737 1246.63 419.118C1247.28 418.5 1247.77 417.865 1248.1 417.214H1250.76C1250.37 418.321 1249.72 419.362 1248.8 420.339C1247.89 421.299 1246.75 422.072 1245.36 422.658C1244 423.244 1242.47 423.537 1240.77 423.537ZM1257.54 396.486H1259.91V400.612H1260.13C1260.72 399.229 1261.69 398.13 1263.04 397.316C1264.39 396.503 1265.91 396.096 1267.6 396.096C1268.06 396.096 1268.48 396.112 1268.87 396.145V398.61C1268.74 398.578 1268.54 398.553 1268.26 398.537C1268 398.505 1267.73 398.488 1267.46 398.488C1266.06 398.488 1264.79 398.798 1263.65 399.416C1262.51 400.035 1261.61 400.889 1260.96 401.979C1260.31 403.07 1259.99 404.299 1259.99 405.666V423H1257.54V396.486Z" fill="black"/>
<path d="M955.43 423.488C952.712 423.488 950.384 422.78 948.447 421.364C946.51 419.948 945.029 417.881 944.004 415.163C942.979 412.445 942.466 409.165 942.466 405.324C942.466 401.516 942.979 398.252 944.004 395.534C945.029 392.816 946.519 390.741 948.472 389.309C950.425 387.876 952.744 387.16 955.43 387.16C958.115 387.16 960.435 387.876 962.388 389.309C964.341 390.741 965.83 392.816 966.855 395.534C967.881 398.252 968.394 401.516 968.394 405.324C968.394 409.165 967.881 412.445 966.855 415.163C965.846 417.881 964.365 419.948 962.412 421.364C960.475 422.78 958.148 423.488 955.43 423.488ZM955.43 418.874C957.008 418.874 958.368 418.353 959.507 417.312C960.662 416.27 961.541 414.74 962.144 412.722C962.746 410.687 963.039 408.221 963.022 405.324C963.022 402.427 962.721 399.961 962.119 397.927C961.517 395.892 960.646 394.346 959.507 393.288C958.368 392.23 957.008 391.701 955.43 391.701C953.851 391.701 952.492 392.23 951.353 393.288C950.213 394.346 949.334 395.892 948.716 397.927C948.097 399.961 947.788 402.427 947.788 405.324C947.788 408.221 948.089 410.687 948.691 412.722C949.294 414.74 950.173 416.27 951.328 417.312C952.484 418.353 953.851 418.874 955.43 418.874ZM973.96 419.094L986.24 406.716C987.721 405.186 988.861 403.949 989.658 403.005C990.456 402.061 991.05 401.133 991.44 400.222C991.847 399.294 992.051 398.334 992.051 397.341C992.051 396.218 991.766 395.225 991.196 394.362C990.627 393.5 989.845 392.832 988.853 392.36C987.86 391.888 986.745 391.652 985.508 391.652C984.222 391.652 983.091 391.913 982.114 392.434C981.154 392.938 980.405 393.671 979.868 394.631C979.347 395.575 979.087 396.665 979.087 397.902H973.984C973.984 395.786 974.481 393.915 975.474 392.287C976.466 390.66 977.842 389.398 979.6 388.503C981.374 387.608 983.384 387.16 985.63 387.16C987.86 387.16 989.845 387.6 991.587 388.479C993.328 389.341 994.688 390.537 995.664 392.067C996.657 393.581 997.153 395.282 997.153 397.17C997.153 398.521 996.901 399.823 996.396 401.076C995.892 402.329 995.037 403.713 993.833 405.227C992.629 406.74 990.903 408.604 988.657 410.817L981.455 418.117V418.386H997.739V423H973.984L973.96 419.094Z" fill="black"/>
<path d="M1128.52 537.648H1139.58C1141.85 537.648 1143.82 538.112 1145.48 539.04C1147.14 539.951 1148.41 541.213 1149.27 542.824C1150.15 544.436 1150.59 546.291 1150.59 548.391C1150.59 550.441 1150.15 552.281 1149.27 553.908C1148.41 555.52 1147.14 556.789 1145.48 557.717C1143.84 558.645 1141.88 559.108 1139.6 559.108H1130.32V556.765H1139.53C1141.32 556.765 1142.85 556.407 1144.12 555.69C1145.4 554.974 1146.38 553.981 1147.05 552.712C1147.71 551.442 1148.05 550.002 1148.05 548.391C1148.05 546.73 1147.71 545.266 1147.05 543.996C1146.38 542.727 1145.4 541.742 1144.12 541.042C1142.83 540.326 1141.29 539.968 1139.5 539.968H1131.03V573H1128.52V537.648ZM1157.01 546.486H1159.38V550.612H1159.6C1160.18 549.229 1161.15 548.13 1162.5 547.316C1163.85 546.503 1165.37 546.096 1167.07 546.096C1167.52 546.096 1167.95 546.112 1168.34 546.145V548.61C1168.21 548.578 1168 548.553 1167.73 548.537C1167.47 548.505 1167.2 548.488 1166.92 548.488C1165.52 548.488 1164.25 548.798 1163.11 549.416C1161.97 550.035 1161.08 550.889 1160.43 551.979C1159.77 553.07 1159.45 554.299 1159.45 555.666V573H1157.01V546.486ZM1182.06 573.537C1179.86 573.537 1177.89 572.951 1176.15 571.779C1174.41 570.591 1173.04 568.964 1172.05 566.896C1171.07 564.813 1170.58 562.461 1170.58 559.841C1170.58 557.204 1171.07 554.844 1172.05 552.761C1173.04 550.661 1174.41 549.025 1176.15 547.854C1177.89 546.682 1179.86 546.096 1182.06 546.096C1184.25 546.096 1186.22 546.682 1187.96 547.854C1189.71 549.025 1191.07 550.661 1192.04 552.761C1193.02 554.844 1193.51 557.204 1193.51 559.841C1193.51 562.461 1193.02 564.813 1192.04 566.896C1191.07 568.964 1189.71 570.591 1187.96 571.779C1186.22 572.951 1184.25 573.537 1182.06 573.537ZM1182.06 571.315C1183.86 571.315 1185.44 570.803 1186.79 569.777C1188.14 568.752 1189.19 567.368 1189.92 565.627C1190.67 563.885 1191.04 561.957 1191.04 559.841C1191.04 557.709 1190.67 555.772 1189.92 554.03C1189.19 552.289 1188.14 550.905 1186.79 549.88C1185.44 548.854 1183.86 548.342 1182.06 548.342C1180.28 548.342 1178.71 548.854 1177.34 549.88C1175.98 550.905 1174.92 552.289 1174.17 554.03C1173.42 555.772 1173.05 557.709 1173.05 559.841C1173.05 561.957 1173.41 563.885 1174.15 565.627C1174.9 567.368 1175.95 568.752 1177.32 569.777C1178.7 570.803 1180.28 571.315 1182.06 571.315ZM1202.2 546.486V576.003C1202.2 577.403 1201.91 578.623 1201.34 579.665C1200.79 580.723 1200 581.537 1198.98 582.106C1197.97 582.676 1196.79 582.961 1195.44 582.961C1195.22 582.961 1195.01 582.961 1194.8 582.961V580.617C1195.01 580.617 1195.22 580.617 1195.41 580.617C1196.27 580.617 1197.03 580.43 1197.68 580.056C1198.33 579.698 1198.84 579.16 1199.2 578.444C1199.57 577.744 1199.76 576.931 1199.76 576.003V546.486H1202.2ZM1200.98 541.848C1200.64 541.848 1200.32 541.766 1200.03 541.604C1199.73 541.441 1199.5 541.213 1199.34 540.92C1199.18 540.627 1199.1 540.318 1199.1 539.992C1199.1 539.65 1199.18 539.341 1199.34 539.064C1199.5 538.788 1199.73 538.576 1200.03 538.43C1200.32 538.267 1200.64 538.186 1200.98 538.186C1201.35 538.186 1201.68 538.267 1201.95 538.43C1202.25 538.576 1202.47 538.788 1202.64 539.064C1202.82 539.341 1202.91 539.65 1202.91 539.992C1202.91 540.318 1202.82 540.627 1202.64 540.92C1202.47 541.213 1202.25 541.441 1201.95 541.604C1201.68 541.766 1201.35 541.848 1200.98 541.848ZM1220.36 573.537C1217.99 573.537 1215.89 572.959 1214.09 571.804C1212.28 570.632 1210.88 569.012 1209.89 566.945C1208.91 564.862 1208.42 562.51 1208.42 559.89C1208.42 557.253 1208.91 554.885 1209.89 552.785C1210.88 550.686 1212.24 549.05 1213.97 547.878C1215.71 546.69 1217.67 546.096 1219.85 546.096C1221.87 546.096 1223.72 546.608 1225.42 547.634C1227.11 548.659 1228.45 550.148 1229.44 552.102C1230.45 554.038 1230.96 556.325 1230.96 558.962V560.329H1210.04V558.181H1228.49C1228.49 556.325 1228.12 554.657 1227.37 553.176C1226.62 551.695 1225.59 550.523 1224.27 549.66C1222.95 548.781 1221.48 548.342 1219.85 548.342C1218.17 548.342 1216.65 548.814 1215.28 549.758C1213.92 550.686 1212.84 551.963 1212.06 553.591C1211.28 555.218 1210.89 557.001 1210.89 558.938V560.085C1210.89 562.25 1211.27 564.187 1212.04 565.896C1212.8 567.604 1213.9 568.939 1215.33 569.899C1216.77 570.843 1218.44 571.315 1220.36 571.315C1221.65 571.315 1222.79 571.104 1223.78 570.681C1224.77 570.257 1225.59 569.737 1226.22 569.118C1226.87 568.5 1227.36 567.865 1227.69 567.214H1230.35C1229.96 568.321 1229.31 569.362 1228.39 570.339C1227.48 571.299 1226.34 572.072 1224.95 572.658C1223.58 573.244 1222.06 573.537 1220.36 573.537ZM1247.24 573.537C1244.98 573.537 1242.97 572.943 1241.21 571.755C1239.45 570.567 1238.09 568.939 1237.11 566.872C1236.15 564.789 1235.67 562.445 1235.67 559.841C1235.67 557.22 1236.16 554.868 1237.13 552.785C1238.13 550.686 1239.49 549.05 1241.24 547.878C1242.98 546.69 1244.96 546.096 1247.19 546.096C1248.9 546.096 1250.46 546.438 1251.88 547.121C1253.3 547.805 1254.46 548.773 1255.37 550.026C1256.3 551.263 1256.89 552.696 1257.13 554.323H1254.64C1254.43 553.184 1253.98 552.159 1253.3 551.247C1252.61 550.336 1251.75 549.628 1250.71 549.123C1249.68 548.602 1248.53 548.342 1247.24 548.342C1245.48 548.342 1243.92 548.83 1242.55 549.807C1241.19 550.767 1240.11 552.118 1239.31 553.859C1238.53 555.585 1238.14 557.554 1238.14 559.768C1238.14 561.949 1238.52 563.918 1239.28 565.676C1240.06 567.434 1241.14 568.809 1242.51 569.802C1243.87 570.795 1245.45 571.291 1247.24 571.291C1248.48 571.291 1249.63 571.047 1250.68 570.559C1251.74 570.054 1252.61 569.346 1253.3 568.435C1254 567.507 1254.45 566.441 1254.66 565.236H1257.15C1256.91 566.848 1256.34 568.28 1255.45 569.533C1254.55 570.786 1253.39 571.771 1251.95 572.487C1250.54 573.187 1248.97 573.537 1247.24 573.537ZM1272.95 548.659H1260.99V546.486H1272.95V548.659ZM1267.38 540.139V566.506C1267.38 567.548 1267.58 568.402 1267.97 569.069C1268.36 569.737 1268.88 570.233 1269.53 570.559C1270.18 570.884 1270.9 571.047 1271.68 571.047C1272.32 571.047 1272.96 571.031 1273.61 570.998V573.317C1273.1 573.382 1272.4 573.415 1271.51 573.415C1270.35 573.415 1269.27 573.163 1268.26 572.658C1267.27 572.154 1266.46 571.413 1265.85 570.437C1265.23 569.444 1264.92 568.288 1264.92 566.97V540.139H1267.38ZM1301.61 573.488C1299.24 573.488 1297.19 572.772 1295.46 571.34C1293.73 569.891 1292.41 567.8 1291.48 565.065C1290.57 562.331 1290.11 559.084 1290.11 555.324C1290.11 551.548 1290.57 548.301 1291.48 545.583C1292.41 542.849 1293.73 540.765 1295.46 539.333C1297.2 537.884 1299.25 537.16 1301.61 537.16C1304 537.16 1306.06 537.884 1307.79 539.333C1309.51 540.765 1310.83 542.849 1311.74 545.583C1312.66 548.301 1313.11 551.548 1313.11 555.324C1313.11 559.084 1312.66 562.331 1311.74 565.065C1310.85 567.8 1309.54 569.891 1307.81 571.34C1306.09 572.772 1304.02 573.488 1301.61 573.488ZM1301.61 571.145C1303.47 571.145 1305.07 570.518 1306.42 569.265C1307.77 568.011 1308.81 566.205 1309.52 563.845C1310.25 561.468 1310.62 558.628 1310.62 555.324C1310.62 552.02 1310.25 549.18 1309.52 546.804C1308.81 544.411 1307.77 542.588 1306.42 541.335C1305.07 540.082 1303.47 539.455 1301.61 539.455C1299.76 539.455 1298.15 540.082 1296.78 541.335C1295.43 542.588 1294.39 544.411 1293.65 546.804C1292.94 549.18 1292.58 552.02 1292.58 555.324C1292.58 558.628 1292.94 561.468 1293.65 563.845C1294.37 566.205 1295.41 568.011 1296.78 569.265C1298.15 570.518 1299.76 571.145 1301.61 571.145ZM1329.57 573H1327V540.31H1326.81L1318.65 545.632V542.946L1326.78 537.648H1329.57V573Z" fill="black"/>
<path d="M955.43 573.488C952.712 573.488 950.384 572.78 948.447 571.364C946.51 569.948 945.029 567.881 944.004 565.163C942.979 562.445 942.466 559.165 942.466 555.324C942.466 551.516 942.979 548.252 944.004 545.534C945.029 542.816 946.519 540.741 948.472 539.309C950.425 537.876 952.744 537.16 955.43 537.16C958.115 537.16 960.435 537.876 962.388 539.309C964.341 540.741 965.83 542.816 966.855 545.534C967.881 548.252 968.394 551.516 968.394 555.324C968.394 559.165 967.881 562.445 966.855 565.163C965.846 567.881 964.365 569.948 962.412 571.364C960.475 572.78 958.148 573.488 955.43 573.488ZM955.43 568.874C957.008 568.874 958.368 568.353 959.507 567.312C960.662 566.27 961.541 564.74 962.144 562.722C962.746 560.687 963.039 558.221 963.022 555.324C963.022 552.427 962.721 549.961 962.119 547.927C961.517 545.892 960.646 544.346 959.507 543.288C958.368 542.23 957.008 541.701 955.43 541.701C953.851 541.701 952.492 542.23 951.353 543.288C950.213 544.346 949.334 545.892 948.716 547.927C948.097 549.961 947.788 552.427 947.788 555.324C947.788 558.221 948.089 560.687 948.691 562.722C949.294 564.74 950.173 566.27 951.328 567.312C952.484 568.353 953.851 568.874 955.43 568.874ZM986.509 573.488C984.116 573.488 981.968 573.081 980.063 572.268C978.159 571.454 976.662 570.314 975.571 568.85C974.481 567.368 973.895 565.668 973.813 563.747H979.233C979.315 564.74 979.681 565.627 980.332 566.408C980.983 567.189 981.846 567.792 982.92 568.215C983.994 568.638 985.182 568.85 986.484 568.85C987.884 568.85 989.154 568.605 990.293 568.117C991.432 567.613 992.311 566.937 992.93 566.091C993.548 565.228 993.857 564.235 993.857 563.112C993.857 561.924 993.548 560.874 992.93 559.963C992.311 559.051 991.4 558.343 990.195 557.839C989.007 557.334 987.575 557.082 985.898 557.082H982.871V552.712H985.898C987.233 552.712 988.421 552.476 989.463 552.004C990.505 551.532 991.31 550.873 991.88 550.026C992.45 549.18 992.726 548.203 992.71 547.097C992.726 546.022 992.482 545.07 991.978 544.24C991.473 543.41 990.757 542.775 989.829 542.336C988.901 541.88 987.827 541.652 986.606 541.652C985.402 541.652 984.287 541.864 983.262 542.287C982.236 542.71 981.398 543.312 980.747 544.094C980.112 544.875 979.771 545.795 979.722 546.853H974.546C974.627 544.965 975.205 543.288 976.279 541.823C977.37 540.342 978.818 539.195 980.625 538.381C982.448 537.567 984.45 537.16 986.631 537.16C988.893 537.16 990.879 537.591 992.588 538.454C994.313 539.3 995.64 540.456 996.567 541.921C997.495 543.386 997.943 545.005 997.91 546.779C997.943 548.081 997.699 549.278 997.178 550.368C996.673 551.442 995.941 552.346 994.98 553.078C994.036 553.794 992.93 554.307 991.66 554.616V554.885C993.255 555.096 994.622 555.593 995.762 556.374C996.917 557.139 997.796 558.107 998.398 559.279C999.001 560.451 999.285 561.786 999.253 563.283C999.285 565.204 998.748 566.945 997.642 568.508C996.535 570.054 995.005 571.275 993.052 572.17C991.099 573.049 988.918 573.488 986.509 573.488Z" fill="black"/>
<path d="M1128.52 687.648H1139.58C1141.85 687.648 1143.82 688.112 1145.48 689.04C1147.14 689.951 1148.41 691.213 1149.27 692.824C1150.15 694.436 1150.59 696.291 1150.59 698.391C1150.59 700.441 1150.15 702.281 1149.27 703.908C1148.41 705.52 1147.14 706.789 1145.48 707.717C1143.84 708.645 1141.88 709.108 1139.6 709.108H1130.32V706.765H1139.53C1141.32 706.765 1142.85 706.407 1144.12 705.69C1145.4 704.974 1146.38 703.981 1147.05 702.712C1147.71 701.442 1148.05 700.002 1148.05 698.391C1148.05 696.73 1147.71 695.266 1147.05 693.996C1146.38 692.727 1145.4 691.742 1144.12 691.042C1142.83 690.326 1141.29 689.968 1139.5 689.968H1131.03V723H1128.52V687.648ZM1157.01 696.486H1159.38V700.612H1159.6C1160.18 699.229 1161.15 698.13 1162.5 697.316C1163.85 696.503 1165.37 696.096 1167.07 696.096C1167.52 696.096 1167.95 696.112 1168.34 696.145V698.61C1168.21 698.578 1168 698.553 1167.73 698.537C1167.47 698.505 1167.2 698.488 1166.92 698.488C1165.52 698.488 1164.25 698.798 1163.11 699.416C1161.97 700.035 1161.08 700.889 1160.43 701.979C1159.77 703.07 1159.45 704.299 1159.45 705.666V723H1157.01V696.486ZM1182.06 723.537C1179.86 723.537 1177.89 722.951 1176.15 721.779C1174.41 720.591 1173.04 718.964 1172.05 716.896C1171.07 714.813 1170.58 712.461 1170.58 709.841C1170.58 707.204 1171.07 704.844 1172.05 702.761C1173.04 700.661 1174.41 699.025 1176.15 697.854C1177.89 696.682 1179.86 696.096 1182.06 696.096C1184.25 696.096 1186.22 696.682 1187.96 697.854C1189.71 699.025 1191.07 700.661 1192.04 702.761C1193.02 704.844 1193.51 707.204 1193.51 709.841C1193.51 712.461 1193.02 714.813 1192.04 716.896C1191.07 718.964 1189.71 720.591 1187.96 721.779C1186.22 722.951 1184.25 723.537 1182.06 723.537ZM1182.06 721.315C1183.86 721.315 1185.44 720.803 1186.79 719.777C1188.14 718.752 1189.19 717.368 1189.92 715.627C1190.67 713.885 1191.04 711.957 1191.04 709.841C1191.04 707.709 1190.67 705.772 1189.92 704.03C1189.19 702.289 1188.14 700.905 1186.79 699.88C1185.44 698.854 1183.86 698.342 1182.06 698.342C1180.28 698.342 1178.71 698.854 1177.34 699.88C1175.98 700.905 1174.92 702.289 1174.17 704.03C1173.42 705.772 1173.05 707.709 1173.05 709.841C1173.05 711.957 1173.41 713.885 1174.15 715.627C1174.9 717.368 1175.95 718.752 1177.32 719.777C1178.7 720.803 1180.28 721.315 1182.06 721.315ZM1202.2 696.486V726.003C1202.2 727.403 1201.91 728.623 1201.34 729.665C1200.79 730.723 1200 731.537 1198.98 732.106C1197.97 732.676 1196.79 732.961 1195.44 732.961C1195.22 732.961 1195.01 732.961 1194.8 732.961V730.617C1195.01 730.617 1195.22 730.617 1195.41 730.617C1196.27 730.617 1197.03 730.43 1197.68 730.056C1198.33 729.698 1198.84 729.16 1199.2 728.444C1199.57 727.744 1199.76 726.931 1199.76 726.003V696.486H1202.2ZM1200.98 691.848C1200.64 691.848 1200.32 691.766 1200.03 691.604C1199.73 691.441 1199.5 691.213 1199.34 690.92C1199.18 690.627 1199.1 690.318 1199.1 689.992C1199.1 689.65 1199.18 689.341 1199.34 689.064C1199.5 688.788 1199.73 688.576 1200.03 688.43C1200.32 688.267 1200.64 688.186 1200.98 688.186C1201.35 688.186 1201.68 688.267 1201.95 688.43C1202.25 688.576 1202.47 688.788 1202.64 689.064C1202.82 689.341 1202.91 689.65 1202.91 689.992C1202.91 690.318 1202.82 690.627 1202.64 690.92C1202.47 691.213 1202.25 691.441 1201.95 691.604C1201.68 691.766 1201.35 691.848 1200.98 691.848ZM1220.36 723.537C1217.99 723.537 1215.89 722.959 1214.09 721.804C1212.28 720.632 1210.88 719.012 1209.89 716.945C1208.91 714.862 1208.42 712.51 1208.42 709.89C1208.42 707.253 1208.91 704.885 1209.89 702.785C1210.88 700.686 1212.24 699.05 1213.97 697.878C1215.71 696.69 1217.67 696.096 1219.85 696.096C1221.87 696.096 1223.72 696.608 1225.42 697.634C1227.11 698.659 1228.45 700.148 1229.44 702.102C1230.45 704.038 1230.96 706.325 1230.96 708.962V710.329H1210.04V708.181H1228.49C1228.49 706.325 1228.12 704.657 1227.37 703.176C1226.62 701.695 1225.59 700.523 1224.27 699.66C1222.95 698.781 1221.48 698.342 1219.85 698.342C1218.17 698.342 1216.65 698.814 1215.28 699.758C1213.92 700.686 1212.84 701.963 1212.06 703.591C1211.28 705.218 1210.89 707.001 1210.89 708.938V710.085C1210.89 712.25 1211.27 714.187 1212.04 715.896C1212.8 717.604 1213.9 718.939 1215.33 719.899C1216.77 720.843 1218.44 721.315 1220.36 721.315C1221.65 721.315 1222.79 721.104 1223.78 720.681C1224.77 720.257 1225.59 719.737 1226.22 719.118C1226.87 718.5 1227.36 717.865 1227.69 717.214H1230.35C1229.96 718.321 1229.31 719.362 1228.39 720.339C1227.48 721.299 1226.34 722.072 1224.95 722.658C1223.58 723.244 1222.06 723.537 1220.36 723.537ZM1247.24 723.537C1244.98 723.537 1242.97 722.943 1241.21 721.755C1239.45 720.567 1238.09 718.939 1237.11 716.872C1236.15 714.789 1235.67 712.445 1235.67 709.841C1235.67 707.22 1236.16 704.868 1237.13 702.785C1238.13 700.686 1239.49 699.05 1241.24 697.878C1242.98 696.69 1244.96 696.096 1247.19 696.096C1248.9 696.096 1250.46 696.438 1251.88 697.121C1253.3 697.805 1254.46 698.773 1255.37 700.026C1256.3 701.263 1256.89 702.696 1257.13 704.323H1254.64C1254.43 703.184 1253.98 702.159 1253.3 701.247C1252.61 700.336 1251.75 699.628 1250.71 699.123C1249.68 698.602 1248.53 698.342 1247.24 698.342C1245.48 698.342 1243.92 698.83 1242.55 699.807C1241.19 700.767 1240.11 702.118 1239.31 703.859C1238.53 705.585 1238.14 707.554 1238.14 709.768C1238.14 711.949 1238.52 713.918 1239.28 715.676C1240.06 717.434 1241.14 718.809 1242.51 719.802C1243.87 720.795 1245.45 721.291 1247.24 721.291C1248.48 721.291 1249.63 721.047 1250.68 720.559C1251.74 720.054 1252.61 719.346 1253.3 718.435C1254 717.507 1254.45 716.441 1254.66 715.236H1257.15C1256.91 716.848 1256.34 718.28 1255.45 719.533C1254.55 720.786 1253.39 721.771 1251.95 722.487C1250.54 723.187 1248.97 723.537 1247.24 723.537ZM1272.95 698.659H1260.99V696.486H1272.95V698.659ZM1267.38 690.139V716.506C1267.38 717.548 1267.58 718.402 1267.97 719.069C1268.36 719.737 1268.88 720.233 1269.53 720.559C1270.18 720.884 1270.9 721.047 1271.68 721.047C1272.32 721.047 1272.96 721.031 1273.61 720.998V723.317C1273.1 723.382 1272.4 723.415 1271.51 723.415C1270.35 723.415 1269.27 723.163 1268.26 722.658C1267.27 722.154 1266.46 721.413 1265.85 720.437C1265.23 719.444 1264.92 718.288 1264.92 716.97V690.139H1267.38ZM1301.61 723.488C1299.24 723.488 1297.19 722.772 1295.46 721.34C1293.73 719.891 1292.41 717.8 1291.48 715.065C1290.57 712.331 1290.11 709.084 1290.11 705.324C1290.11 701.548 1290.57 698.301 1291.48 695.583C1292.41 692.849 1293.73 690.765 1295.46 689.333C1297.2 687.884 1299.25 687.16 1301.61 687.16C1304 687.16 1306.06 687.884 1307.79 689.333C1309.51 690.765 1310.83 692.849 1311.74 695.583C1312.66 698.301 1313.11 701.548 1313.11 705.324C1313.11 709.084 1312.66 712.331 1311.74 715.065C1310.85 717.8 1309.54 719.891 1307.81 721.34C1306.09 722.772 1304.02 723.488 1301.61 723.488ZM1301.61 721.145C1303.47 721.145 1305.07 720.518 1306.42 719.265C1307.77 718.011 1308.81 716.205 1309.52 713.845C1310.25 711.468 1310.62 708.628 1310.62 705.324C1310.62 702.02 1310.25 699.18 1309.52 696.804C1308.81 694.411 1307.77 692.588 1306.42 691.335C1305.07 690.082 1303.47 689.455 1301.61 689.455C1299.76 689.455 1298.15 690.082 1296.78 691.335C1295.43 692.588 1294.39 694.411 1293.65 696.804C1292.94 699.18 1292.58 702.02 1292.58 705.324C1292.58 708.628 1292.94 711.468 1293.65 713.845C1294.37 716.205 1295.41 718.011 1296.78 719.265C1298.15 720.518 1299.76 721.145 1301.61 721.145ZM1319.56 721.096L1331.4 707.985C1333.16 706.032 1334.5 704.445 1335.43 703.225C1336.35 702.004 1337.02 700.873 1337.43 699.831C1337.85 698.789 1338.06 697.707 1338.06 696.584C1338.06 695.217 1337.72 693.988 1337.04 692.897C1336.37 691.807 1335.44 690.961 1334.25 690.358C1333.07 689.756 1331.73 689.455 1330.25 689.455C1328.74 689.455 1327.39 689.781 1326.2 690.432C1325.01 691.083 1324.08 691.986 1323.41 693.142C1322.76 694.281 1322.44 695.559 1322.44 696.975H1320C1320 695.119 1320.44 693.451 1321.31 691.97C1322.21 690.472 1323.45 689.3 1325.03 688.454C1326.6 687.591 1328.37 687.16 1330.32 687.16C1332.26 687.16 1333.99 687.567 1335.52 688.381C1337.07 689.195 1338.28 690.326 1339.16 691.774C1340.04 693.223 1340.48 694.826 1340.48 696.584C1340.48 697.902 1340.25 699.156 1339.8 700.344C1339.34 701.532 1338.58 702.85 1337.5 704.299C1336.44 705.747 1334.88 707.595 1332.81 709.841L1323.22 720.485V720.656H1341.94V723H1319.58L1319.56 721.096Z" fill="black"/>
<path d="M955.43 723.488C952.712 723.488 950.384 722.78 948.447 721.364C946.51 719.948 945.029 717.881 944.004 715.163C942.979 712.445 942.466 709.165 942.466 705.324C942.466 701.516 942.979 698.252 944.004 695.534C945.029 692.816 946.519 690.741 948.472 689.309C950.425 687.876 952.744 687.16 955.43 687.16C958.115 687.16 960.435 687.876 962.388 689.309C964.341 690.741 965.83 692.816 966.855 695.534C967.881 698.252 968.394 701.516 968.394 705.324C968.394 709.165 967.881 712.445 966.855 715.163C965.846 717.881 964.365 719.948 962.412 721.364C960.475 722.78 958.148 723.488 955.43 723.488ZM955.43 718.874C957.008 718.874 958.368 718.353 959.507 717.312C960.662 716.27 961.541 714.74 962.144 712.722C962.746 710.687 963.039 708.221 963.022 705.324C963.022 702.427 962.721 699.961 962.119 697.927C961.517 695.892 960.646 694.346 959.507 693.288C958.368 692.23 957.008 691.701 955.43 691.701C953.851 691.701 952.492 692.23 951.353 693.288C950.213 694.346 949.334 695.892 948.716 697.927C948.097 699.961 947.788 702.427 947.788 705.324C947.788 708.221 948.089 710.687 948.691 712.722C949.294 714.74 950.173 716.27 951.328 717.312C952.484 718.353 953.851 718.874 955.43 718.874ZM973.228 711.745L988.804 687.648H992.222V694.045H990L978.843 711.257V711.55H1000.28V716.091H973.228V711.745ZM990.366 714.797L990.391 712.795V687.648H995.493V723H990.366V714.797Z" fill="black"/>
<path d="M1128.52 837.648H1139.58C1141.85 837.648 1143.82 838.112 1145.48 839.04C1147.14 839.951 1148.41 841.213 1149.27 842.824C1150.15 844.436 1150.59 846.291 1150.59 848.391C1150.59 850.441 1150.15 852.281 1149.27 853.908C1148.41 855.52 1147.14 856.789 1145.48 857.717C1143.84 858.645 1141.88 859.108 1139.6 859.108H1130.32V856.765H1139.53C1141.32 856.765 1142.85 856.407 1144.12 855.69C1145.4 854.974 1146.38 853.981 1147.05 852.712C1147.71 851.442 1148.05 850.002 1148.05 848.391C1148.05 846.73 1147.71 845.266 1147.05 843.996C1146.38 842.727 1145.4 841.742 1144.12 841.042C1142.83 840.326 1141.29 839.968 1139.5 839.968H1131.03V873H1128.52V837.648ZM1157.01 846.486H1159.38V850.612H1159.6C1160.18 849.229 1161.15 848.13 1162.5 847.316C1163.85 846.503 1165.37 846.096 1167.07 846.096C1167.52 846.096 1167.95 846.112 1168.34 846.145V848.61C1168.21 848.578 1168 848.553 1167.73 848.537C1167.47 848.505 1167.2 848.488 1166.92 848.488C1165.52 848.488 1164.25 848.798 1163.11 849.416C1161.97 850.035 1161.08 850.889 1160.43 851.979C1159.77 853.07 1159.45 854.299 1159.45 855.666V873H1157.01V846.486ZM1182.06 873.537C1179.86 873.537 1177.89 872.951 1176.15 871.779C1174.41 870.591 1173.04 868.964 1172.05 866.896C1171.07 864.813 1170.58 862.461 1170.58 859.841C1170.58 857.204 1171.07 854.844 1172.05 852.761C1173.04 850.661 1174.41 849.025 1176.15 847.854C1177.89 846.682 1179.86 846.096 1182.06 846.096C1184.25 846.096 1186.22 846.682 1187.96 847.854C1189.71 849.025 1191.07 850.661 1192.04 852.761C1193.02 854.844 1193.51 857.204 1193.51 859.841C1193.51 862.461 1193.02 864.813 1192.04 866.896C1191.07 868.964 1189.71 870.591 1187.96 871.779C1186.22 872.951 1184.25 873.537 1182.06 873.537ZM1182.06 871.315C1183.86 871.315 1185.44 870.803 1186.79 869.777C1188.14 868.752 1189.19 867.368 1189.92 865.627C1190.67 863.885 1191.04 861.957 1191.04 859.841C1191.04 857.709 1190.67 855.772 1189.92 854.03C1189.19 852.289 1188.14 850.905 1186.79 849.88C1185.44 848.854 1183.86 848.342 1182.06 848.342C1180.28 848.342 1178.71 848.854 1177.34 849.88C1175.98 850.905 1174.92 852.289 1174.17 854.03C1173.42 855.772 1173.05 857.709 1173.05 859.841C1173.05 861.957 1173.41 863.885 1174.15 865.627C1174.9 867.368 1175.95 868.752 1177.32 869.777C1178.7 870.803 1180.28 871.315 1182.06 871.315ZM1202.2 846.486V876.003C1202.2 877.403 1201.91 878.623 1201.34 879.665C1200.79 880.723 1200 881.537 1198.98 882.106C1197.97 882.676 1196.79 882.961 1195.44 882.961C1195.22 882.961 1195.01 882.961 1194.8 882.961V880.617C1195.01 880.617 1195.22 880.617 1195.41 880.617C1196.27 880.617 1197.03 880.43 1197.68 880.056C1198.33 879.698 1198.84 879.16 1199.2 878.444C1199.57 877.744 1199.76 876.931 1199.76 876.003V846.486H1202.2ZM1200.98 841.848C1200.64 841.848 1200.32 841.766 1200.03 841.604C1199.73 841.441 1199.5 841.213 1199.34 840.92C1199.18 840.627 1199.1 840.318 1199.1 839.992C1199.1 839.65 1199.18 839.341 1199.34 839.064C1199.5 838.788 1199.73 838.576 1200.03 838.43C1200.32 838.267 1200.64 838.186 1200.98 838.186C1201.35 838.186 1201.68 838.267 1201.95 838.43C1202.25 838.576 1202.47 838.788 1202.64 839.064C1202.82 839.341 1202.91 839.65 1202.91 839.992C1202.91 840.318 1202.82 840.627 1202.64 840.92C1202.47 841.213 1202.25 841.441 1201.95 841.604C1201.68 841.766 1201.35 841.848 1200.98 841.848ZM1220.36 873.537C1217.99 873.537 1215.89 872.959 1214.09 871.804C1212.28 870.632 1210.88 869.012 1209.89 866.945C1208.91 864.862 1208.42 862.51 1208.42 859.89C1208.42 857.253 1208.91 854.885 1209.89 852.785C1210.88 850.686 1212.24 849.05 1213.97 847.878C1215.71 846.69 1217.67 846.096 1219.85 846.096C1221.87 846.096 1223.72 846.608 1225.42 847.634C1227.11 848.659 1228.45 850.148 1229.44 852.102C1230.45 854.038 1230.96 856.325 1230.96 858.962V860.329H1210.04V858.181H1228.49C1228.49 856.325 1228.12 854.657 1227.37 853.176C1226.62 851.695 1225.59 850.523 1224.27 849.66C1222.95 848.781 1221.48 848.342 1219.85 848.342C1218.17 848.342 1216.65 848.814 1215.28 849.758C1213.92 850.686 1212.84 851.963 1212.06 853.591C1211.28 855.218 1210.89 857.001 1210.89 858.938V860.085C1210.89 862.25 1211.27 864.187 1212.04 865.896C1212.8 867.604 1213.9 868.939 1215.33 869.899C1216.77 870.843 1218.44 871.315 1220.36 871.315C1221.65 871.315 1222.79 871.104 1223.78 870.681C1224.77 870.257 1225.59 869.737 1226.22 869.118C1226.87 868.5 1227.36 867.865 1227.69 867.214H1230.35C1229.96 868.321 1229.31 869.362 1228.39 870.339C1227.48 871.299 1226.34 872.072 1224.95 872.658C1223.58 873.244 1222.06 873.537 1220.36 873.537ZM1247.24 873.537C1244.98 873.537 1242.97 872.943 1241.21 871.755C1239.45 870.567 1238.09 868.939 1237.11 866.872C1236.15 864.789 1235.67 862.445 1235.67 859.841C1235.67 857.22 1236.16 854.868 1237.13 852.785C1238.13 850.686 1239.49 849.05 1241.24 847.878C1242.98 846.69 1244.96 846.096 1247.19 846.096C1248.9 846.096 1250.46 846.438 1251.88 847.121C1253.3 847.805 1254.46 848.773 1255.37 850.026C1256.3 851.263 1256.89 852.696 1257.13 854.323H1254.64C1254.43 853.184 1253.98 852.159 1253.3 851.247C1252.61 850.336 1251.75 849.628 1250.71 849.123C1249.68 848.602 1248.53 848.342 1247.24 848.342C1245.48 848.342 1243.92 848.83 1242.55 849.807C1241.19 850.767 1240.11 852.118 1239.31 853.859C1238.53 855.585 1238.14 857.554 1238.14 859.768C1238.14 861.949 1238.52 863.918 1239.28 865.676C1240.06 867.434 1241.14 868.809 1242.51 869.802C1243.87 870.795 1245.45 871.291 1247.24 871.291C1248.48 871.291 1249.63 871.047 1250.68 870.559C1251.74 870.054 1252.61 869.346 1253.3 868.435C1254 867.507 1254.45 866.441 1254.66 865.236H1257.15C1256.91 866.848 1256.34 868.28 1255.45 869.533C1254.55 870.786 1253.39 871.771 1251.95 872.487C1250.54 873.187 1248.97 873.537 1247.24 873.537ZM1272.95 848.659H1260.99V846.486H1272.95V848.659ZM1267.38 840.139V866.506C1267.38 867.548 1267.58 868.402 1267.97 869.069C1268.36 869.737 1268.88 870.233 1269.53 870.559C1270.18 870.884 1270.9 871.047 1271.68 871.047C1272.32 871.047 1272.96 871.031 1273.61 870.998V873.317C1273.1 873.382 1272.4 873.415 1271.51 873.415C1270.35 873.415 1269.27 873.163 1268.26 872.658C1267.27 872.154 1266.46 871.413 1265.85 870.437C1265.23 869.444 1264.92 868.288 1264.92 866.97V840.139H1267.38ZM1301.61 873.488C1299.24 873.488 1297.19 872.772 1295.46 871.34C1293.73 869.891 1292.41 867.8 1291.48 865.065C1290.57 862.331 1290.11 859.084 1290.11 855.324C1290.11 851.548 1290.57 848.301 1291.48 845.583C1292.41 842.849 1293.73 840.765 1295.46 839.333C1297.2 837.884 1299.25 837.16 1301.61 837.16C1304 837.16 1306.06 837.884 1307.79 839.333C1309.51 840.765 1310.83 842.849 1311.74 845.583C1312.66 848.301 1313.11 851.548 1313.11 855.324C1313.11 859.084 1312.66 862.331 1311.74 865.065C1310.85 867.8 1309.54 869.891 1307.81 871.34C1306.09 872.772 1304.02 873.488 1301.61 873.488ZM1301.61 871.145C1303.47 871.145 1305.07 870.518 1306.42 869.265C1307.77 868.011 1308.81 866.205 1309.52 863.845C1310.25 861.468 1310.62 858.628 1310.62 855.324C1310.62 852.02 1310.25 849.18 1309.52 846.804C1308.81 844.411 1307.77 842.588 1306.42 841.335C1305.07 840.082 1303.47 839.455 1301.61 839.455C1299.76 839.455 1298.15 840.082 1296.78 841.335C1295.43 842.588 1294.39 844.411 1293.65 846.804C1292.94 849.18 1292.58 852.02 1292.58 855.324C1292.58 858.628 1292.94 861.468 1293.65 863.845C1294.37 866.205 1295.41 868.011 1296.78 869.265C1298.15 870.518 1299.76 871.145 1301.61 871.145ZM1331.03 873.488C1328.88 873.488 1326.95 873.09 1325.22 872.292C1323.5 871.494 1322.14 870.388 1321.14 868.972C1320.15 867.556 1319.62 865.944 1319.56 864.138H1322.12C1322.17 865.489 1322.58 866.701 1323.37 867.775C1324.16 868.833 1325.23 869.663 1326.56 870.266C1327.91 870.852 1329.4 871.145 1331.01 871.145C1332.75 871.145 1334.3 870.811 1335.67 870.144C1337.05 869.476 1338.12 868.581 1338.87 867.458C1339.63 866.319 1340.02 865.041 1340.02 863.625C1340.02 862.128 1339.61 860.793 1338.79 859.621C1337.98 858.449 1336.83 857.546 1335.35 856.911C1333.87 856.276 1332.15 855.959 1330.18 855.959H1328.61V853.64H1330.18C1331.82 853.64 1333.3 853.347 1334.62 852.761C1335.94 852.175 1336.96 851.345 1337.7 850.271C1338.44 849.18 1338.82 847.919 1338.82 846.486C1338.82 845.135 1338.49 843.931 1337.84 842.873C1337.21 841.799 1336.3 840.961 1335.11 840.358C1333.94 839.756 1332.59 839.455 1331.06 839.455C1329.54 839.455 1328.17 839.748 1326.93 840.334C1325.69 840.92 1324.71 841.75 1323.98 842.824C1323.26 843.882 1322.89 845.111 1322.85 846.511H1320.36C1320.41 844.704 1320.9 843.093 1321.83 841.677C1322.77 840.244 1324.05 839.138 1325.66 838.356C1327.29 837.559 1329.09 837.16 1331.08 837.16C1333.07 837.16 1334.84 837.567 1336.4 838.381C1337.96 839.178 1339.18 840.285 1340.04 841.701C1340.9 843.101 1341.33 844.663 1341.31 846.389C1341.33 847.723 1341.07 848.952 1340.55 850.075C1340.03 851.182 1339.28 852.126 1338.31 852.907C1337.33 853.688 1336.18 854.266 1334.86 854.641V854.836C1336.43 855.145 1337.78 855.715 1338.92 856.545C1340.07 857.359 1340.96 858.368 1341.58 859.572C1342.2 860.777 1342.5 862.128 1342.48 863.625C1342.5 865.464 1342.01 867.132 1341.02 868.63C1340.04 870.127 1338.67 871.315 1336.92 872.194C1335.17 873.057 1333.21 873.488 1331.03 873.488Z" fill="black"/>
<path d="M955.43 873.488C952.712 873.488 950.384 872.78 948.447 871.364C946.51 869.948 945.029 867.881 944.004 865.163C942.979 862.445 942.466 859.165 942.466 855.324C942.466 851.516 942.979 848.252 944.004 845.534C945.029 842.816 946.519 840.741 948.472 839.309C950.425 837.876 952.744 837.16 955.43 837.16C958.115 837.16 960.435 837.876 962.388 839.309C964.341 840.741 965.83 842.816 966.855 845.534C967.881 848.252 968.394 851.516 968.394 855.324C968.394 859.165 967.881 862.445 966.855 865.163C965.846 867.881 964.365 869.948 962.412 871.364C960.475 872.78 958.148 873.488 955.43 873.488ZM955.43 868.874C957.008 868.874 958.368 868.353 959.507 867.312C960.662 866.27 961.541 864.74 962.144 862.722C962.746 860.687 963.039 858.221 963.022 855.324C963.022 852.427 962.721 849.961 962.119 847.927C961.517 845.892 960.646 844.346 959.507 843.288C958.368 842.23 957.008 841.701 955.43 841.701C953.851 841.701 952.492 842.23 951.353 843.288C950.213 844.346 949.334 845.892 948.716 847.927C948.097 849.961 947.788 852.427 947.788 855.324C947.788 858.221 948.089 860.687 948.691 862.722C949.294 864.74 950.173 866.27 951.328 867.312C952.484 868.353 953.851 868.874 955.43 868.874ZM986.021 873.488C983.823 873.488 981.821 873.073 980.015 872.243C978.224 871.397 976.8 870.233 975.742 868.752C974.701 867.271 974.139 865.603 974.058 863.747H979.258C979.372 864.756 979.738 865.651 980.356 866.433C980.991 867.214 981.797 867.84 982.773 868.312C983.766 868.768 984.849 868.996 986.021 868.996C987.42 868.996 988.674 868.679 989.78 868.044C990.903 867.409 991.782 866.538 992.417 865.432C993.052 864.309 993.369 863.063 993.369 861.696C993.369 860.248 993.044 858.97 992.393 857.863C991.758 856.74 990.854 855.853 989.683 855.202C988.527 854.551 987.225 854.226 985.776 854.226C984.312 854.193 983.058 854.429 982.017 854.934C980.975 855.438 980.153 856.236 979.551 857.326H974.497L976.792 837.648H996.812V842.263H981.26L980.039 852.126H980.356C981.138 851.426 982.114 850.856 983.286 850.417C984.474 849.978 985.719 849.758 987.021 849.758C989.219 849.758 991.196 850.262 992.954 851.271C994.728 852.264 996.112 853.664 997.104 855.471C998.114 857.261 998.61 859.287 998.594 861.55C998.61 863.828 998.073 865.879 996.982 867.702C995.908 869.509 994.411 870.925 992.49 871.95C990.586 872.976 988.429 873.488 986.021 873.488Z" fill="black"/>
<rect x="128" y="225" width="282" height="51" fill="#A4ADD1"/>
<path d="M178.574 257.334H127.634V254.7H178.574V257.334ZM154.326 255.874H151.375V238.926H154.326V255.874ZM173.274 217.693H132.49V215.027H173.274V217.693ZM173.242 240.037H132.522V237.498H173.242V240.037ZM144.995 238.259H142.012V216.931H144.995V238.259ZM163.816 238.259H160.833V216.931H163.816V238.259ZM228.594 242.671H190.73V240.037H228.594V242.671ZM234.751 256.985H183.811V254.319H234.751V256.985ZM227.927 217.058H193.809V240.989H190.73V214.424H227.927V217.058ZM226.753 229.5H192.793V226.897H226.753V229.5ZM285.596 213.281H244.939V210.742H285.596V213.281ZM285.5 228.896H244.971V226.357H285.5V228.896ZM257.349 228.135H254.365V211.599H257.349V228.135ZM276.169 228.135H273.186V211.599H276.169V228.135ZM290.61 238.132H239.988V235.562H290.61V238.132ZM266.743 237.244H263.823V228.135H266.743V237.244ZM283.882 254.382H249.509V262.507H246.526V251.938H280.962V245.94H246.367V243.528H283.882V254.382ZM285.723 263.936H246.526V261.428H285.723V263.936ZM341.614 264.792H338.662V209.155H341.614V264.792ZM304.036 248.289C308.944 248.31 313.631 248.172 318.096 247.876C322.581 247.58 327.332 247.051 332.346 246.289L332.695 248.923C327.49 249.706 322.634 250.256 318.127 250.574C313.621 250.87 308.923 251.007 304.036 250.986H299.592V248.289H304.036ZM324.951 233.308H302.607V249.399H299.592V230.706H321.936V217.28H299.434V214.646H324.951V233.308ZM379.097 255.334H376.145V240.608H379.097V255.334ZM377.637 213.313C381.53 213.313 384.979 213.895 387.983 215.059C391.009 216.222 393.358 217.873 395.029 220.01C396.722 222.126 397.568 224.591 397.568 227.405C397.568 230.198 396.722 232.652 395.029 234.768C393.358 236.884 391.009 238.524 387.983 239.688C384.979 240.83 381.53 241.401 377.637 241.401C373.765 241.401 370.316 240.83 367.29 239.688C364.285 238.524 361.937 236.884 360.244 234.768C358.551 232.652 357.705 230.198 357.705 227.405C357.705 224.591 358.551 222.126 360.244 220.01C361.937 217.894 364.285 216.254 367.29 215.09C370.316 213.905 373.765 213.313 377.637 213.313ZM377.637 215.916C374.421 215.916 371.501 216.402 368.877 217.375C366.253 218.349 364.201 219.714 362.72 221.47C361.239 223.205 360.498 225.183 360.498 227.405C360.498 229.605 361.239 231.584 362.72 233.34C364.201 235.096 366.243 236.461 368.845 237.434C371.469 238.386 374.399 238.873 377.637 238.894C380.874 238.873 383.794 238.386 386.396 237.434C388.999 236.461 391.051 235.096 392.554 233.34C394.056 231.584 394.807 229.605 394.807 227.405C394.807 225.183 394.056 223.205 392.554 221.47C391.051 219.714 388.999 218.349 386.396 217.375C383.794 216.402 380.874 215.916 377.637 215.916ZM403.281 257.144H352.341V254.478H403.281V257.144ZM467.71 229.88H430.386V211.599H467.71V229.88ZM433.306 227.278H464.727V214.106H433.306V227.278ZM474.248 240.671H423.625V238.069H474.248V240.671ZM450.508 239.465H447.556V229.055H450.508V239.465ZM467.869 264.761H464.854V250.161H429.275V247.559H467.869V264.761ZM496.941 227.659C496.941 231.383 496.232 234.98 494.814 238.45C493.397 241.92 491.503 244.967 489.133 247.59C486.785 250.193 484.246 252.214 481.516 253.652L479.612 251.304C482.214 250.034 484.637 248.193 486.88 245.781C489.144 243.369 490.974 240.587 492.371 237.434C493.788 234.26 494.497 231.002 494.497 227.659V221.47H496.941V227.659ZM497.322 227.659C497.322 230.748 497.988 233.795 499.321 236.799C500.654 239.783 502.432 242.449 504.653 244.797C506.875 247.146 509.245 248.955 511.763 250.225L509.858 252.605C507.171 251.187 504.685 249.209 502.4 246.67C500.136 244.11 498.316 241.179 496.941 237.878C495.587 234.578 494.91 231.171 494.91 227.659V221.47H497.322V227.659ZM510.747 221.787H480.913V219.216H510.747V221.787ZM497.449 220.835H494.402V210.012H497.449V220.835ZM522.332 264.761H519.285V209.155H522.332V264.761ZM532.297 235.466H521.538V232.8H532.297V235.466Z" fill="black"/>
</svg>
