<svg width="183" height="183" viewBox="0 0 183 183" fill="none" xmlns="http://www.w3.org/2000/svg">
<rect width="183" height="183" rx="91.5" fill="#333333"/>
<path d="M55.9531 121.922L23.6289 102.586L22.9453 84.6172L55.8555 63.8164L62.7891 80.418L38.8633 92.918L63.9609 105.125L55.9531 121.922ZM114.742 60.5938C109.501 71.9544 104.651 83.5104 100.191 95.2617C95.7643 106.98 91.6302 118.829 87.7891 130.809L68.2578 123.191C70.6341 117.299 73.0104 111.424 75.3867 105.564C77.763 99.6725 80.1882 93.8294 82.6621 88.0352C85.1686 82.2083 87.7728 76.4303 90.4746 70.7012C93.1764 64.972 96.0573 59.3242 99.1172 53.7578L114.742 60.5938ZM127.096 121.922L120.064 105.125L144.088 92.625L119.088 80.418L126.998 63.8164L159.322 82.957L160.104 101.023L127.096 121.922Z" fill="white"/>
</svg>
