<svg width="227" height="227" viewBox="0 0 227 227" fill="none" xmlns="http://www.w3.org/2000/svg">
<g filter="url(#filter0_d_7_66)">
<rect x="22" y="22" width="183" height="183" rx="91.5" fill="white"/>
</g>
<path d="M77.9531 143.922L45.6289 124.586L44.9453 106.617L77.8555 85.8164L84.7891 102.418L60.8633 114.918L85.9609 127.125L77.9531 143.922ZM136.742 82.5938C131.501 93.9544 126.651 105.51 122.191 117.262C117.764 128.98 113.63 140.829 109.789 152.809L90.2578 145.191C92.6341 139.299 95.0104 133.424 97.3867 127.564C99.763 121.673 102.188 115.829 104.662 110.035C107.169 104.208 109.773 98.4303 112.475 92.7012C115.176 86.972 118.057 81.3242 121.117 75.7578L136.742 82.5938ZM149.096 143.922L142.064 127.125L166.088 114.625L141.088 102.418L148.998 85.8164L181.322 104.957L182.104 123.023L149.096 143.922Z" fill="#0369A1"/>
<defs>
<filter id="filter0_d_7_66" x="0" y="0" width="227" height="227" filterUnits="userSpaceOnUse" color-interpolation-filters="sRGB">
<feFlood flood-opacity="0" result="BackgroundImageFix"/>
<feColorMatrix in="SourceAlpha" type="matrix" values="0 0 0 0 0 0 0 0 0 0 0 0 0 0 0 0 0 0 127 0" result="hardAlpha"/>
<feOffset/>
<feGaussianBlur stdDeviation="11"/>
<feComposite in2="hardAlpha" operator="out"/>
<feColorMatrix type="matrix" values="0 0 0 0 0 0 0 0 0 0 0 0 0 0 0 0 0 0 0.1 0"/>
<feBlend mode="normal" in2="BackgroundImageFix" result="effect1_dropShadow_7_66"/>
<feBlend mode="normal" in="SourceGraphic" in2="effect1_dropShadow_7_66" result="shape"/>
</filter>
</defs>
</svg>
